G04 ================== begin FILE IDENTIFICATION RECORD ==================*
G04 Layout Name:  C:/Users/adria/Desktop/Proiect_orCAD/allegro/SCHEMA_FINALA.brd*
G04 Film Name:    BO*
G04 File Format:  Gerber RS274X*
G04 File Origin:  Cadence Allegro 17.2-S025*
G04 Origin Date:  Fri Dec 12 22:13:09 2025*
G04 *
G04 Layer:  DRAWING FORMAT/OUTLINE*
G04 Layer:  BOARD GEOMETRY/OUTLINE*
G04 Layer:  BOARD GEOMETRY/DIMENSION*
G04 Layer:  BOARD GEOMETRY/DESIGN_OUTLINE*
G04 *
G04 Offset:    (0.00 0.00)*
G04 Mirror:    No*
G04 Mode:      Positive*
G04 Rotation:  0*
G04 FullContactRelief:  No*
G04 UndefLineWidth:     5.00*
G04 ================== end FILE IDENTIFICATION RECORD ====================*
%FSLAX25Y25*MOIN*%
%IR0*IPPOS*OFA0.00000B0.00000*MIA0B0*SFA1.00000B1.00000*%
%ADD10C,.005*%
G75*
%LPD*%
G75*
G54D10*
G01X0Y-10000D02*
Y-23200D01*
G01Y0D02*
Y157500D01*
X157500D01*
Y0D01*
X0D01*
G01X46675Y-13200D02*
X0D01*
G01X15000Y-10700D02*
X0Y-13200D01*
X15000Y-15700D01*
Y-10700D01*
G01X60700Y-19450D02*
Y-6950D01*
X58840Y-9450D01*
G01Y-19450D02*
X62560D01*
G01X73100Y-19867D02*
X72790Y-19658D01*
Y-19242D01*
X73100Y-19033D01*
X73410Y-19242D01*
Y-19658D01*
X73100Y-19867D01*
G01X82090Y-17575D02*
X83020Y-18617D01*
X84105Y-19242D01*
X85500Y-19450D01*
X86895Y-19033D01*
X87980Y-18200D01*
X88755Y-16742D01*
X88910Y-15075D01*
X88600Y-13408D01*
X87825Y-12367D01*
X86740Y-11533D01*
X85655Y-11325D01*
X84570Y-11533D01*
X83175Y-12367D01*
X83640Y-6950D01*
X87825D01*
G01X97900Y-19450D02*
X98985Y-19242D01*
X100225Y-18617D01*
X101000Y-17575D01*
X101310Y-16117D01*
X101000Y-14659D01*
X100070Y-13408D01*
X98675Y-12783D01*
X97125D01*
X96195Y-12367D01*
X95420Y-11325D01*
X95110Y-9867D01*
X95575Y-8408D01*
X96660Y-7367D01*
X97900Y-6950D01*
X99140Y-7367D01*
X100225Y-8408D01*
X100690Y-9867D01*
X100380Y-11325D01*
X99605Y-12367D01*
X98675Y-12783D01*
X97125D01*
X95730Y-13408D01*
X94800Y-14659D01*
X94490Y-16117D01*
X94800Y-17575D01*
X95575Y-18617D01*
X96815Y-19242D01*
X97900Y-19450D01*
G01X111925Y-13200D02*
X157500D01*
G01Y-10000D02*
Y-23200D01*
G01X142500Y-15700D02*
X157500Y-13200D01*
X142500Y-10700D01*
Y-15700D01*
G01X162900Y72150D02*
Y84650D01*
X161040Y82150D01*
G01Y72150D02*
X164760D01*
G01X175300Y71733D02*
X174990Y71942D01*
Y72358D01*
X175300Y72567D01*
X175610Y72358D01*
Y71942D01*
X175300Y71733D01*
G01X184290Y74025D02*
X185220Y72983D01*
X186305Y72358D01*
X187700Y72150D01*
X189095Y72567D01*
X190180Y73400D01*
X190955Y74858D01*
X191110Y76525D01*
X190800Y78192D01*
X190025Y79233D01*
X188940Y80067D01*
X187855Y80275D01*
X186770Y80067D01*
X185375Y79233D01*
X185840Y84650D01*
X190025D01*
G01X200100Y72150D02*
X201185Y72358D01*
X202425Y72983D01*
X203200Y74025D01*
X203510Y75483D01*
X203200Y76941D01*
X202270Y78192D01*
X200875Y78817D01*
X199325D01*
X198395Y79233D01*
X197620Y80275D01*
X197310Y81733D01*
X197775Y83192D01*
X198860Y84233D01*
X200100Y84650D01*
X201340Y84233D01*
X202425Y83192D01*
X202890Y81733D01*
X202580Y80275D01*
X201805Y79233D01*
X200875Y78817D01*
X199325D01*
X197930Y78192D01*
X197000Y76941D01*
X196690Y75483D01*
X197000Y74025D01*
X197775Y72983D01*
X199015Y72358D01*
X200100Y72150D01*
G01X167500Y0D02*
X191500D01*
G01X181500Y62775D02*
Y0D01*
G01X179000Y15000D02*
X181500Y0D01*
X184000Y15000D01*
X179000D01*
G01X181500Y94025D02*
Y157500D01*
G01X167500D02*
X191500D01*
G01X184000Y142500D02*
X181500Y157500D01*
X179000Y142500D01*
X184000D01*
M02*
