G04 ================== begin FILE IDENTIFICATION RECORD ==================*
G04 Layout Name:  P1_NECULA_ADRIAN.brd*
G04 Film Name:    SPTOP*
G04 File Format:  Gerber RS274X*
G04 File Origin:  Cadence Allegro 17.2-S025*
G04 Origin Date:  Sat Dec 13 01:11:30 2025*
G04 *
G04 Layer:  VIA CLASS/PASTEMASK_TOP*
G04 Layer:  PIN/PASTEMASK_TOP*
G04 Layer:  PACKAGE GEOMETRY/PASTEMASK_TOP*
G04 Layer:  DRC ERROR CLASS/PASTEMASK_TOP*
G04 *
G04 Offset:    (0.00 0.00)*
G04 Mirror:    No*
G04 Mode:      Positive*
G04 Rotation:  0*
G04 FullContactRelief:  No*
G04 UndefLineWidth:     5.00*
G04 ================== end FILE IDENTIFICATION RECORD ====================*
%FSLAX25Y25*MOIN*%
%IR0*IPPOS*OFA0.00000B0.00000*MIA0B0*SFA1.00000B1.00000*%
%ADD14C,.03543*%
%ADD10R,.045X.045*%
%ADD11R,.047X.047*%
%ADD13R,.032X.045*%
%ADD17R,.045X.032*%
%ADD16R,.072X.047*%
%ADD12R,.047X.072*%
%ADD15R,.068X.043*%
%LPD*%
G75*
G54D10*
X44500Y9700D03*
X28300Y53200D03*
X36700D03*
X43700Y42900D03*
X15150Y75700D03*
Y84100D03*
X42300Y123400D03*
Y115000D03*
X18400Y104700D03*
X26800D03*
X34400Y134850D03*
Y143250D03*
X52900Y9700D03*
X61300Y21900D03*
X52900D03*
X52100Y42900D03*
X73400Y123400D03*
Y115000D03*
X95400Y17500D03*
Y25900D03*
X95200Y54700D03*
Y46300D03*
X82000Y54700D03*
Y46300D03*
X88100Y145300D03*
X96500D03*
X112000Y62700D03*
Y54300D03*
X122400Y68600D03*
X130800D03*
X112000Y81300D03*
Y72900D03*
Y100600D03*
Y92200D03*
X130800Y78300D03*
X122400D03*
G54D11*
X37400Y21945D03*
Y31000D03*
X71945Y8000D03*
X48400Y143255D03*
Y134200D03*
X81000Y8000D03*
G54D12*
X15156Y26472D03*
X70644Y138728D03*
G54D13*
X40000Y70000D03*
X32300D03*
X36200Y62000D03*
X42400Y84100D03*
X42300Y107200D03*
X50100Y84100D03*
X46200Y92100D03*
X73600Y84100D03*
X46200Y99200D03*
X73400Y107200D03*
X50000D03*
X81300Y84100D03*
X77400Y92100D03*
X77300Y99200D03*
X81100Y107200D03*
G54D14*
X20000Y137500D03*
X137500Y20000D03*
G54D15*
X66500Y42900D03*
Y50800D03*
Y62100D03*
Y70000D03*
X119800Y18000D03*
Y25900D03*
X106800D03*
Y18000D03*
X126700Y46400D03*
Y54300D03*
Y93000D03*
Y100900D03*
G54D16*
X76472Y30244D03*
G54D17*
X88700Y69800D03*
Y77500D03*
X96700Y73700D03*
X96900Y131200D03*
Y123500D03*
X104900Y127400D03*
M02*
