G04 ================== begin FILE IDENTIFICATION RECORD ==================*
G04 Layout Name:  P1_NECULA_ADRIAN.brd*
G04 Film Name:    TOP*
G04 File Format:  Gerber RS274X*
G04 File Origin:  Cadence Allegro 17.2-S025*
G04 Origin Date:  Sat Dec 13 11:18:52 2025*
G04 *
G04 Layer:  ETCH/TOP*
G04 Layer:  PIN/TOP*
G04 Layer:  VIA CLASS/TOP*
G04 *
G04 Offset:    (0.00 0.00)*
G04 Mirror:    No*
G04 Mode:      Positive*
G04 Rotation:  0*
G04 FullContactRelief:  No*
G04 UndefLineWidth:     5.00*
G04 ================== end FILE IDENTIFICATION RECORD ====================*
%FSLAX25Y25*MOIN*%
%IR0*IPPOS*OFA0.00000B0.00000*MIA0B0*SFA1.00000B1.00000*%
%ADD20R,.12X.076*%
%ADD19R,.076X.12*%
%ADD10R,.05X.05*%
%ADD11R,.052X.052*%
%ADD15C,.02756*%
%ADD14C,.03937*%
%ADD13R,.036X.05*%
%ADD18R,.05X.036*%
%ADD17R,.08X.052*%
%ADD12R,.052X.08*%
%ADD16R,.076X.048*%
%ADD21C,.016*%
%ADD22C,.026*%
%ADD23C,.07878*%
G75*
%LPD*%
G75*
G36*
G01X76044Y4001D02*
G02X75711Y4623I0J400D01*
G03X75946Y5400I-1167J777D01*
G01Y10600D01*
G03X74545Y12002I-1402J0D01*
G01X69345D01*
G03X67944Y10602I0J-1401D01*
G01Y10202D01*
X63812D01*
X63502Y10512D01*
Y17998D01*
X63800D01*
G03X65202Y19400I0J1402D01*
G01Y24400D01*
G03X63800Y25802I-1402J0D01*
G01X63502D01*
Y31502D01*
G03X59098I-2202J1698D01*
G01Y25802D01*
X58800D01*
G03X57398Y24400I0J-1402D01*
G01Y19400D01*
G03X58800Y17998I1402J0D01*
G01X59098D01*
Y8688D01*
X61988Y5798D01*
X67944D01*
Y5400D01*
G03X68179Y4623I1402J0D01*
G02X67846Y4001I-333J-222D01*
G01X4001D01*
Y153499D01*
X153499D01*
Y4001D01*
X85099D01*
G02X84766Y4623I0J400D01*
G03X85002Y5400I-1166J778D01*
G01Y5798D01*
X90812D01*
X97602Y12588D01*
Y13598D01*
X97900D01*
G03X99302Y15000I0J1402D01*
G01Y15298D01*
X100912D01*
X100988Y15375D01*
G02X101655Y15205I283J-283D01*
G03X103000Y14198I1345J395D01*
G01X110600D01*
G03X112002Y15598I0J1402D01*
G01Y15798D01*
X114598D01*
Y15598D01*
G03X116000Y14198I1402J2D01*
G01X123600D01*
G03X125002Y15600I0J1402D01*
G01Y28300D01*
G03X123600Y29702I-1402J0D01*
G01X116000D01*
G03X114598Y28302I0J-1402D01*
G01Y28102D01*
X112002D01*
Y28302D01*
G03X110600Y29702I-1402J-2D01*
G01X103000D01*
G03X101598Y28302I0J-1402D01*
G01Y28102D01*
X99302D01*
Y28400D01*
G03X97900Y29802I-1402J0D01*
G01X97602D01*
Y31002D01*
X97641Y31055D01*
G03X97804Y34096I-2241J1645D01*
G02X98150Y34696I346J200D01*
G01X144612D01*
X147502Y37586D01*
Y39898D01*
X151300D01*
G03X152702Y41300I0J1402D01*
G01Y48900D01*
G03X151300Y50302I-1402J0D01*
G01X139300D01*
G03X137898Y48900I0J-1402D01*
G01Y41300D01*
G03X139300Y39898I1402J0D01*
G01X143098D01*
Y39410D01*
X142788Y39100D01*
X128902D01*
Y42598D01*
X130500D01*
G03X131902Y44000I0J1402D01*
G01Y56700D01*
G03X130500Y58102I-1402J0D01*
G01X128902D01*
Y59688D01*
X133002Y63788D01*
Y64698D01*
X133300D01*
G03X134702Y66100I0J1402D01*
G01Y71100D01*
G03X133300Y72502I-1402J0D01*
G01X128300D01*
G03X126898Y71100I0J-1402D01*
G01Y66100D01*
G03X127399Y65027I1402J1D01*
G02X127424Y64438I-258J-306D01*
G01X124498Y61512D01*
Y58102D01*
X122900D01*
G03X121498Y56700I0J-1402D01*
G01Y44000D01*
G03X122900Y42598I1402J0D01*
G01X124498D01*
Y39100D01*
X97402D01*
Y42398D01*
X97700D01*
G03X99102Y43800I0J1402D01*
G01Y48800D01*
G03X97700Y50202I-1402J0D01*
G01X92700D01*
G03X91298Y48800I0J-1402D01*
G01Y43800D01*
G03X92700Y42398I1402J0D01*
G01X92998D01*
Y39100D01*
X71798D01*
G02X71466Y39722I1J400D01*
G03X71702Y40500I-1166J778D01*
G01Y53200D01*
G03X70300Y54602I-1402J0D01*
G01X68702D01*
Y58298D01*
X70300D01*
G03X71702Y59700I0J1402D01*
G01Y67798D01*
X72512D01*
X72578Y67864D01*
X79798D01*
Y58602D01*
X79500D01*
G03X78098Y57200I0J-1402D01*
G01Y52200D01*
G03X79500Y50798I1402J0D01*
G01X84500D01*
G03X85902Y52200I0J1402D01*
G01Y57200D01*
G03X84500Y58602I-1402J0D01*
G01X84202D01*
Y73688D01*
X85208Y74695D01*
X85347Y74588D01*
G03X86200Y74298I854J1112D01*
G01X91200D01*
G03X92132Y74654I-1J1401D01*
G02X92798Y74356I266J-299D01*
G01Y72944D01*
G02X92132Y72646I-400J1D01*
G03X91200Y73002I-933J-1045D01*
G01X86200D01*
G03X84798Y71600I0J-1402D01*
G01Y68000D01*
G03X86200Y66598I1402J0D01*
G01X86498D01*
Y65788D01*
X92998Y59288D01*
Y58602D01*
X92700D01*
G03X91298Y57200I0J-1402D01*
G01Y52200D01*
G03X92700Y50798I1402J0D01*
G01X97700D01*
G03X99102Y52200I0J1402D01*
G01Y57200D01*
G03X97700Y58602I-1402J0D01*
G01X97402D01*
Y61112D01*
X92129Y66384D01*
G02X92143Y66963I283J283D01*
G03X92602Y68000I-942J1037D01*
G01Y70556D01*
G02X93268Y70854I400J-1D01*
G03X94200Y70498I933J1045D01*
G01X99398D01*
Y61998D01*
G03X103802I2202J-1698D01*
G01Y98398D01*
X108098D01*
Y98100D01*
G03X109500Y96698I1402J0D01*
G01X114500D01*
G03X115902Y98100I0J1402D01*
G01Y103100D01*
G03X115119Y104357I-1402J-1D01*
G02X115013Y104999I176J359D01*
G01X117112Y107098D01*
X124498D01*
Y104702D01*
X122900D01*
G03X121498Y103300I0J-1402D01*
G01Y90600D01*
G03X122900Y89198I1402J0D01*
G01X124498D01*
Y85988D01*
X127787Y82699D01*
G02X127681Y82057I-282J-283D01*
G03X126898Y80800I619J-1258D01*
G01Y75800D01*
G03X128300Y74398I1402J0D01*
G01X133300D01*
G03X134702Y75800I0J1402D01*
G01Y80800D01*
G03X133300Y82202I-1402J0D01*
G01X133002D01*
Y83012D01*
X132802Y83212D01*
Y83912D01*
X128902Y87812D01*
Y89198D01*
X130500D01*
G03X131902Y90600I0J1402D01*
G01Y103300D01*
G03X130500Y104702I-1402J0D01*
G01X128902D01*
Y107098D01*
X137898D01*
Y105500D01*
G03X139300Y104098I1402J0D01*
G01X151300D01*
G03X152702Y105500I0J1402D01*
G01Y113100D01*
G03X151300Y114502I-1402J0D01*
G01X139300D01*
G03X137898Y113100I0J-1402D01*
G01Y111502D01*
X115288D01*
X109798Y106012D01*
Y104502D01*
X109500D01*
G03X108098Y103100I0J-1402D01*
G01Y102802D01*
X103802D01*
Y110688D01*
X107102Y113988D01*
Y124198D01*
X107400D01*
G03X108802Y125600I0J1402D01*
G01Y129200D01*
G03X107400Y130602I-1402J0D01*
G01X107102D01*
Y143098D01*
X114698D01*
Y139300D01*
G03X116100Y137898I1402J0D01*
G01X123700D01*
G03X125102Y139300I0J1402D01*
G01Y151300D01*
G03X123700Y152702I-1402J0D01*
G01X116100D01*
G03X114698Y151300I0J-1402D01*
G01Y147502D01*
X100402D01*
Y147800D01*
G03X99000Y149202I-1402J0D01*
G01X94000D01*
G03X92598Y147800I0J-1402D01*
G01Y142800D01*
G03X94000Y141398I1402J0D01*
G01X99000D01*
G03X100402Y142800I0J1402D01*
G01Y143098D01*
X102698D01*
Y130602D01*
X102400D01*
G03X101468Y130246I1J-1401D01*
G02X100802Y130544I-266J299D01*
G01Y133000D01*
G03X99400Y134402I-1402J0D01*
G01X94400D01*
G03X93101Y133527I0J-1402D01*
G01X93050Y133402D01*
X92698D01*
X92645Y133441D01*
G03Y128959I-1645J-2241D01*
G01X92698Y128998D01*
X93050D01*
X93101Y128873D01*
G03X94400Y127998I1299J527D01*
G01X99400D01*
G03X100332Y128354I-1J1401D01*
G02X100998Y128056I266J-299D01*
G01Y126644D01*
G02X100332Y126346I-400J1D01*
G03X99400Y126702I-933J-1045D01*
G01X94400D01*
G03X93095Y125812I0J-1402D01*
G01X93046Y125685D01*
X77302Y125618D01*
Y125900D01*
G03X75900Y127302I-1402J0D01*
G01X70900D01*
G03X69498Y125900I0J-1402D01*
G01Y125602D01*
X46202D01*
Y125900D01*
G03X44800Y127302I-1402J0D01*
G01X39800D01*
G03X38398Y125900I0J-1402D01*
G01Y125685D01*
X38160D01*
X38128Y125697D01*
G03X37716Y125602I-130J-378D01*
G01X37284Y125170D01*
G02X36602Y125453I-282J283D01*
G01Y130948D01*
X36900D01*
G03X38302Y132350I0J1402D01*
G01Y137350D01*
G03X36900Y138752I-1402J0D01*
G01X31900D01*
G03X30498Y137350I0J-1402D01*
G01Y132350D01*
G03X31900Y130948I1402J0D01*
G01X32198D01*
Y125712D01*
X24598Y118112D01*
Y108602D01*
X24300D01*
G03X22898Y107200I0J-1402D01*
G01Y102200D01*
G03X24300Y100798I1402J0D01*
G01X24598D01*
Y86302D01*
X19052D01*
Y86600D01*
G03X17650Y88002I-1402J0D01*
G01X12650D01*
G03X11248Y86600I0J-1402D01*
G01Y81600D01*
G03X12650Y80198I1402J0D01*
G01X17650D01*
G03X19052Y81600I0J1402D01*
G01Y81898D01*
X39198D01*
Y81600D01*
G03X40600Y80198I1402J0D01*
G01X44200D01*
G03X45602Y81600I0J1402D01*
G01Y86600D01*
G03X45246Y87532I-1401J-1D01*
G02X45544Y88198I299J266D01*
G01X46956D01*
G02X47254Y87532I-1J-400D01*
G03X46898Y86600I1045J-933D01*
G01Y81600D01*
G03X47773Y80301I1402J0D01*
G01X47898Y80250D01*
Y79798D01*
X47859Y79745D01*
G03X51798Y75898I2241J-1646D01*
G01X79702D01*
G02X79842Y75555I0J-200D01*
G01X79798Y75512D01*
Y72268D01*
X71709D01*
X71701Y72459D01*
G03X70300Y73802I-1401J-59D01*
G01X62700D01*
G03X61298Y72402I0J-1402D01*
G01Y72202D01*
X43202D01*
Y72500D01*
G03X41800Y73902I-1402J0D01*
G01X38200D01*
G03X36798Y72500I0J-1402D01*
G01Y67500D01*
G03X37154Y66568I1401J1D01*
G02X36856Y65902I-299J-266D01*
G01X35444D01*
G02X35146Y66568I1J400D01*
G03X35502Y67500I-1045J933D01*
G01Y72500D01*
G03X34100Y73902I-1402J0D01*
G01X30500D01*
G03X29098Y72500I0J-1402D01*
G01Y72312D01*
X26098Y69312D01*
Y57102D01*
X25800D01*
G03X24398Y55700I0J-1402D01*
G01Y50700D01*
G03X25800Y49298I1402J0D01*
G01X30800D01*
G03X32202Y50700I0J1402D01*
G01Y55700D01*
G03X30800Y57102I-1402J0D01*
G01X30502D01*
Y66098D01*
X33056D01*
G02X33354Y65432I-1J-400D01*
G03X32998Y64500I1045J-933D01*
G01Y59500D01*
G03X34400Y58098I1402J0D01*
G01X38000D01*
G03X39402Y59500I0J1402D01*
G01Y59798D01*
X48402D01*
G03Y64202I1698J2202D01*
G01X39402D01*
Y64500D01*
G03X39046Y65432I-1401J-1D01*
G02X39344Y66098I299J266D01*
G01X41800D01*
G03X43202Y67500I0J1402D01*
G01Y67798D01*
X61298D01*
Y59700D01*
G03X62700Y58298I1402J0D01*
G01X64298D01*
Y54602D01*
X62700D01*
G03X61298Y53200I0J-1402D01*
G01Y45102D01*
X56002D01*
Y45400D01*
G03X54600Y46802I-1402J0D01*
G01X49600D01*
G03X48198Y45400I0J-1402D01*
G01Y40400D01*
G03X49600Y38998I1402J0D01*
G01X54600D01*
G03X56002Y40400I0J1402D01*
G01Y40698D01*
X61298D01*
Y40498D01*
G03X62700Y39098I1402J2D01*
G01X64298D01*
Y37688D01*
X67290Y34696D01*
X92650D01*
G02X92996Y34096I0J-400D01*
G03X93159Y31055I2404J-1396D01*
G01X93198Y31002D01*
Y29802D01*
X92900D01*
G03X91498Y28400I0J-1402D01*
G01Y23400D01*
G03X92900Y21998I1402J0D01*
G01X97900D01*
G03X99302Y23400I0J1402D01*
G01Y23698D01*
X101598D01*
Y20202D01*
X99588D01*
X99461Y20075D01*
X99279Y20257D01*
X99266Y20313D01*
G03X97900Y21402I-1366J-312D01*
G01X92900D01*
G03X91498Y20000I0J-1402D01*
G01Y15000D01*
G03X92042Y13892I1402J1D01*
G02X92080Y13293I-245J-316D01*
G01X88988Y10202D01*
X85002D01*
Y10600D01*
G03X83600Y12002I-1402J0D01*
G01X83202D01*
Y18512D01*
X78674Y23040D01*
Y26242D01*
X80472D01*
G03X81874Y27644I0J1402D01*
G01Y32844D01*
G03X80472Y34246I-1402J0D01*
G01X72472D01*
G03X71070Y32844I0J-1402D01*
G01Y27644D01*
G03X72472Y26242I1402J0D01*
G01X74270D01*
Y21216D01*
X78798Y16688D01*
Y12002D01*
X78400D01*
G03X76998Y10600I0J-1402D01*
G01Y5400D01*
G03X77234Y4623I1402J1D01*
G02X76901Y4001I-333J-222D01*
G01X76044D01*
G37*
%LPC*%
G75*
G36*
G01X139198Y139300D02*
Y151300D01*
G02X139700Y151802I502J0D01*
G01X147300D01*
G02X147802Y151300I0J-502D01*
G01Y139300D01*
G02X147300Y138798I-502J0D01*
G01X139700D01*
G02X139198Y139300I0J502D01*
G37*
G36*
G01X138798Y81900D02*
Y89500D01*
G02X139300Y90002I502J0D01*
G01X151300D01*
G02X151802Y89500I0J-502D01*
G01Y81900D01*
G02X151300Y81398I-502J0D01*
G01X139300D01*
G02X138798Y81900I0J502D01*
G37*
G36*
G01Y64900D02*
Y72500D01*
G02X139300Y73002I502J0D01*
G01X151300D01*
G02X151802Y72500I0J-502D01*
G01Y64900D01*
G02X151300Y64398I-502J0D01*
G01X139300D01*
G02X138798Y64900I0J502D01*
G37*
G36*
G01X119398Y75800D02*
Y80800D01*
G02X119900Y81302I502J0D01*
G01X124900D01*
G02X125402Y80800I0J-502D01*
G01Y75800D01*
G02X124900Y75298I-502J0D01*
G01X119900D01*
G02X119398Y75800I0J502D01*
G37*
G36*
G01Y66100D02*
Y71100D01*
G02X119900Y71602I502J0D01*
G01X124900D01*
G02X125402Y71100I0J-502D01*
G01Y66100D01*
G02X124900Y65598I-502J0D01*
G01X119900D01*
G02X119398Y66100I0J502D01*
G37*
G36*
G01X108998Y51800D02*
Y56800D01*
G02X109500Y57302I502J0D01*
G01X114500D01*
G02X115002Y56800I0J-502D01*
G01Y51800D01*
G02X114500Y51298I-502J0D01*
G01X109500D01*
G02X108998Y51800I0J502D01*
G37*
G36*
G01X78998Y43800D02*
Y48800D01*
G02X79500Y49302I502J0D01*
G01X84500D01*
G02X85002Y48800I0J-502D01*
G01Y43800D01*
G02X84500Y43298I-502J0D01*
G01X79500D01*
G02X78998Y43800I0J502D01*
G37*
G36*
G01X15398Y102200D02*
Y107200D01*
G02X15900Y107702I502J0D01*
G01X20900D01*
G02X21402Y107200I0J-502D01*
G01Y102200D01*
G02X20900Y101698I-502J0D01*
G01X15900D01*
G02X15398Y102200I0J502D01*
G37*
G36*
G01X34298Y19345D02*
Y24545D01*
G02X34800Y25046I502J-1D01*
G01X40000D01*
G02X40502Y24545I1J-501D01*
G01Y19345D01*
G02X40000Y18844I-502J1D01*
G01X34800D01*
G02X34298Y19345I-1J501D01*
G37*
G36*
G01X41498Y7200D02*
Y12200D01*
G02X42000Y12702I502J0D01*
G01X47000D01*
G02X47502Y12200I0J-502D01*
G01Y7200D01*
G02X47000Y6698I-502J0D01*
G01X42000D01*
G02X41498Y7200I0J502D01*
G37*
G36*
G01X52402Y131600D02*
G02X51000Y130198I-1402J0D01*
G01X45800D01*
G02X44398Y131600I0J1402D01*
G01Y136800D01*
G02X45800Y138202I1402J0D01*
G01X51000D01*
G02X52402Y136800I0J-1402D01*
G01Y136402D01*
X56488D01*
X61016Y140930D01*
X66642D01*
Y142728D01*
G02X68044Y144130I1402J0D01*
G01X73244D01*
G02X74646Y142728I0J-1402D01*
G01Y141625D01*
G03X75328Y141342I400J0D01*
G01X81488Y147502D01*
X84198D01*
Y147800D01*
G02X85600Y149202I1402J0D01*
G01X90600D01*
G02X92002Y147800I0J-1402D01*
G01Y142800D01*
G02X90600Y141398I-1402J0D01*
G01X85600D01*
G02X84198Y142800I0J1402D01*
G01Y143098D01*
X83312D01*
X76740Y136526D01*
X74646D01*
Y134728D01*
G02X73244Y133326I-1402J0D01*
G01X68044D01*
G02X66642Y134728I0J1402D01*
G01Y136526D01*
X62840D01*
X58312Y131998D01*
X52402D01*
Y131600D01*
G37*
G36*
G01X115902Y78800D02*
G02X114500Y77398I-1402J0D01*
G01X109500D01*
G02X108098Y78800I0J1402D01*
G01Y83800D01*
G02X109500Y85202I1402J0D01*
G01X109798D01*
Y88298D01*
X109500D01*
G02X108098Y89700I0J1402D01*
G01Y94700D01*
G02X109500Y96102I1402J0D01*
G01X114500D01*
G02X115902Y94700I0J-1402D01*
G01Y89700D01*
G02X114500Y88298I-1402J0D01*
G01X114202D01*
Y85202D01*
X114500D01*
G02X115902Y83800I0J-1402D01*
G01Y78800D01*
G37*
G36*
G01Y60200D02*
G02X114500Y58798I-1402J0D01*
G01X109500D01*
G02X108098Y60200I0J1402D01*
G01Y65200D01*
G02X109500Y66602I1402J0D01*
G01X109798D01*
Y68998D01*
X109500D01*
G02X108098Y70400I0J1402D01*
G01Y75400D01*
G02X109500Y76802I1402J0D01*
G01X114500D01*
G02X115902Y75400I0J-1402D01*
G01Y70400D01*
G02X114500Y68998I-1402J0D01*
G01X114202D01*
Y66602D01*
X114500D01*
G02X115902Y65200I0J-1402D01*
G01Y60200D01*
G37*
G36*
G01X47602Y40400D02*
G02X46200Y38998I-1402J0D01*
G01X41200D01*
G02X39798Y40400I0J1402D01*
G01Y40698D01*
X37688D01*
X34498Y43888D01*
Y49298D01*
X34200D01*
G02X32798Y50700I0J1402D01*
G01Y55700D01*
G02X34200Y57102I1402J0D01*
G01X39200D01*
G02X40602Y55700I0J-1402D01*
G01Y50700D01*
G02X39200Y49298I-1402J0D01*
G01X38902D01*
Y45712D01*
X39512Y45102D01*
X39798D01*
Y45400D01*
G02X41200Y46802I1402J0D01*
G01X46200D01*
G02X47602Y45400I0J-1402D01*
G01Y40400D01*
G37*
G36*
G01X19158Y22472D02*
G02X17756Y21070I-1402J0D01*
G01X12556D01*
G02X11154Y22472I0J1402D01*
G01Y30472D01*
G02X12556Y31874I1402J0D01*
G01X12948D01*
Y71798D01*
X12650D01*
G02X11248Y73200I0J1402D01*
G01Y78200D01*
G02X12650Y79602I1402J0D01*
G01X17650D01*
G02X19052Y78200I0J-1402D01*
G01Y73200D01*
G02X17650Y71798I-1402J0D01*
G01X17352D01*
Y31874D01*
X17756D01*
G02X19158Y30472I0J-1402D01*
G01Y28674D01*
X24260D01*
X28788Y33202D01*
X33398D01*
Y33600D01*
G02X34800Y35002I1402J0D01*
G01X40000D01*
G02X41402Y33600I0J-1402D01*
G01Y28400D01*
G02X40000Y26998I-1402J0D01*
G01X34800D01*
G02X33398Y28400I0J1402D01*
G01Y28798D01*
X30612D01*
X26084Y24270D01*
X19158D01*
Y22472D01*
G37*
G36*
G01X56802Y7200D02*
G02X55400Y5798I-1402J0D01*
G01X50400D01*
G02X48998Y7200I0J1402D01*
G01Y12200D01*
G02X50400Y13602I1402J0D01*
G01X50698D01*
Y17998D01*
X50400D01*
G02X48998Y19400I0J1402D01*
G01Y24400D01*
G02X50400Y25802I1402J0D01*
G01X55400D01*
G02X56802Y24400I0J-1402D01*
G01Y19400D01*
G02X55400Y17998I-1402J0D01*
G01X55102D01*
Y13602D01*
X55400D01*
G02X56802Y12200I0J-1402D01*
G01Y7200D01*
G37*
G36*
G01X52402Y140655D02*
G02X51000Y139254I-1402J1D01*
G01X45800D01*
G02X44398Y140655I-1J1401D01*
G01Y141054D01*
X42167D01*
X42162Y141048D01*
X38302D01*
Y140750D01*
G02X36900Y139348I-1402J0D01*
G01X31900D01*
G02X30498Y140750I0J1402D01*
G01Y145750D01*
G02X31900Y147152I1402J0D01*
G01X36900D01*
G02X38302Y145750I0J-1402D01*
G01Y145452D01*
X40338D01*
X40343Y145456D01*
X44398D01*
Y145855D01*
G02X45800Y147256I1402J-1D01*
G01X51000D01*
G02X52402Y145855I1J-1401D01*
G01Y140655D01*
G37*
G54D23*
X137500Y20000D03*
X20000Y137500D03*
%LPD*%
G75*
G54D10*
X44500Y9700D03*
X28300Y53200D03*
X36700D03*
X43700Y42900D03*
X15150Y75700D03*
Y84100D03*
X42300Y123400D03*
Y115000D03*
X18400Y104700D03*
X26800D03*
X34400Y134850D03*
Y143250D03*
X52900Y9700D03*
X61300Y21900D03*
X52900D03*
X52100Y42900D03*
X73400Y123400D03*
Y115000D03*
X95400Y17500D03*
Y25900D03*
X95200Y54700D03*
Y46300D03*
X82000Y54700D03*
Y46300D03*
X88100Y145300D03*
X96500D03*
X112000Y62700D03*
Y54300D03*
X122400Y68600D03*
X130800D03*
X112000Y81300D03*
Y72900D03*
Y100600D03*
Y92200D03*
X130800Y78300D03*
X122400D03*
G54D11*
X37400Y21945D03*
Y31000D03*
X71945Y8000D03*
X48400Y143255D03*
Y134200D03*
X81000Y8000D03*
G54D20*
X145300Y68700D03*
Y45100D03*
Y85700D03*
Y109300D03*
G54D21*
G01X37400Y31000D02*
X29700D01*
X25172Y26472D01*
X15156D01*
G01X15150Y75700D02*
Y26478D01*
X15156Y26472D01*
G01X36200Y62000D02*
X50100D01*
G01X36700Y53200D02*
Y44800D01*
X38600Y42900D01*
X43700D01*
G01X32300Y70000D02*
X29900D01*
X28300Y68400D01*
Y53200D01*
G01X40000Y70000D02*
X66500D01*
G01X42400Y84100D02*
X26800D01*
G01D02*
Y104700D01*
G01Y84100D02*
X15150D01*
G01X34400Y134850D02*
Y124800D01*
X26800Y117200D01*
Y104700D01*
G01X48400Y143255D02*
X41255D01*
X41250Y143250D01*
X34400D01*
G01X52900Y9700D02*
Y21900D01*
G01X71945Y8000D02*
X62900D01*
X61300Y9600D01*
Y21900D01*
G01X95200Y36898D02*
X68202D01*
X66500Y38600D01*
Y42900D01*
G01X61300Y21900D02*
Y33200D01*
G01X52100Y42900D02*
X66500D01*
G01Y62100D02*
Y50800D01*
G01X50000Y107200D02*
X59800D01*
X67800Y99200D01*
X77300D01*
G01X50100Y84100D02*
Y78100D01*
G01X81300Y84100D02*
Y80300D01*
X79100Y78100D01*
X50100D01*
G01X52700Y99200D02*
X46200D01*
G01D02*
Y92100D01*
G01X82000Y70066D02*
X71666D01*
X71600Y70000D01*
X66500D01*
G01X61300Y84100D02*
X73600D01*
G01X42300Y123400D02*
X73400D01*
G01X42300Y115000D02*
Y107200D01*
G01X70644Y138728D02*
X61928D01*
X57400Y134200D01*
X48400D01*
G01X70644Y138728D02*
X75828D01*
X82400Y145300D01*
X88100D01*
G01X81000Y8000D02*
Y17600D01*
X76472Y22128D01*
Y30244D01*
G01X95400Y17500D02*
Y13500D01*
X89900Y8000D01*
X81000D01*
G01X95200Y46300D02*
Y36898D01*
G01X126700D02*
X95200D01*
G01X95400Y17500D02*
X100000D01*
X100500Y18000D01*
X106800D01*
G01X95400Y25900D02*
X106800D01*
G01X95400D02*
Y32700D01*
G01X88700Y69800D02*
Y66700D01*
X95200Y60200D01*
Y54700D01*
G01X82000D02*
Y70066D01*
G01X101600Y73700D02*
Y60300D01*
G01X77400Y92100D02*
X77300Y99200D01*
G01X81100Y107200D02*
Y103000D01*
X77300Y99200D01*
G01X88700Y77500D02*
X84900D01*
X82000Y74600D01*
Y70066D01*
G01X96700Y73700D02*
X101600D01*
G01D02*
Y100600D01*
G01X73400Y123400D02*
X96900Y123500D01*
G01X73400Y115000D02*
Y107200D01*
G01X112000Y100600D02*
X101600D01*
G01X104900Y127400D02*
Y114900D01*
X101600Y111600D01*
Y100600D01*
G01X91000Y131200D02*
X96900D01*
G01X96500Y145300D02*
X104900D01*
G01X145300Y45100D02*
Y38498D01*
X143700Y36898D01*
X126700D01*
G01Y46400D02*
Y36898D01*
G01X106800Y18000D02*
X119800D01*
G01X106800Y25900D02*
X119800D01*
G01X112000Y72900D02*
Y62700D01*
G01X126700Y54300D02*
Y60600D01*
X130800Y64700D01*
Y68600D01*
G01X112000Y92200D02*
Y81300D01*
G01X130800Y78300D02*
Y82100D01*
X130600Y82300D01*
Y83000D01*
X126700Y86900D01*
Y93000D01*
G01Y109300D02*
Y100900D01*
G01Y109300D02*
X116200D01*
X112000Y105100D01*
Y100600D01*
G01X145300Y109300D02*
X126700D01*
G01X104900Y145300D02*
Y127400D01*
G01Y145300D02*
X119900D01*
G54D12*
X15156Y26472D03*
X70644Y138728D03*
G54D22*
G01X41298Y9700D02*
X44500D01*
G01X37400Y18643D02*
Y21945D01*
G01D02*
Y25247D01*
G01X34098Y21945D02*
X37400D01*
G01D02*
X40702D01*
G01X18400Y101498D02*
Y104700D01*
G01D02*
Y107902D01*
G01X15198Y104700D02*
X18400D01*
G01X44500Y6498D02*
Y9700D01*
G01D02*
Y12902D01*
G01X82000Y43098D02*
Y46300D01*
G01X78798D02*
X82000D01*
G01D02*
X85202D01*
G01X122400Y65398D02*
Y68600D01*
G01D02*
Y71802D01*
G01X119198Y68600D02*
X122400D01*
G01X112000Y51098D02*
Y54300D01*
G01X108798D02*
X112000D01*
G01D02*
X115202D01*
G01X122400Y75098D02*
Y78300D01*
G01D02*
Y81502D01*
G01X119198Y78300D02*
X122400D01*
G01X145300Y64198D02*
Y68700D01*
G01D02*
Y73202D01*
G01X138598Y68700D02*
X145300D01*
G01D02*
X152002D01*
G01X145300Y81198D02*
Y85700D01*
G01D02*
Y90202D01*
G01X138598Y85700D02*
X145300D01*
G01D02*
X152002D01*
G01X143500Y138598D02*
Y145300D01*
G01D02*
Y152002D01*
G01X138998Y145300D02*
X143500D01*
G01D02*
X148002D01*
G54D13*
X40000Y70000D03*
X32300D03*
X36200Y62000D03*
X42400Y84100D03*
X42300Y107200D03*
X50100Y84100D03*
X46200Y92100D03*
X73600Y84100D03*
X46200Y99200D03*
X73400Y107200D03*
X50000D03*
X81300Y84100D03*
X77400Y92100D03*
X77300Y99200D03*
X81100Y107200D03*
G54D14*
X20000Y137500D03*
X137500Y20000D03*
G54D15*
X61300Y33200D03*
X50100Y62000D03*
Y78100D03*
X52700Y99200D03*
X61300Y84100D03*
X95400Y32700D03*
X101600Y60300D03*
X91000Y131200D03*
G54D16*
X66500Y42900D03*
Y50800D03*
Y62100D03*
Y70000D03*
X119800Y18000D03*
Y25900D03*
X106800D03*
Y18000D03*
X126700Y46400D03*
Y54300D03*
Y93000D03*
Y100900D03*
G54D17*
X76472Y30244D03*
G54D18*
X88700Y69800D03*
Y77500D03*
X96700Y73700D03*
X96900Y131200D03*
Y123500D03*
X104900Y127400D03*
G54D19*
X119900Y145300D03*
X143500D03*
M02*
